<svg width="28" height="28" viewBox="0 0 28 28" fill="none" xmlns="http://www.w3.org/2000/svg">
<path d="M10.5016 19.8333H6.5401C5.07193 19.8333 4.33785 19.8333 4.18341 19.7193C4.00988 19.5913 3.96748 19.5157 3.94869 19.3008C3.93197 19.1096 4.38189 18.3734 5.28174 16.901C6.21081 15.3808 6.99971 13.1673 6.99971 10.0333C6.99971 8.30059 7.7372 6.63881 9.04996 5.41357C10.3627 4.18833 12.1432 3.5 13.9997 3.5C15.8562 3.5 17.6367 4.18833 18.9495 5.41357C20.2622 6.63881 20.9997 8.30059 20.9997 10.0333C20.9997 13.1673 21.7886 15.3808 22.7177 16.901C23.6175 18.3734 24.0674 19.1096 24.0507 19.3008C24.0319 19.5157 23.9895 19.5913 23.816 19.7193C23.6616 19.8333 22.9275 19.8333 21.4593 19.8333H17.4997M10.5016 19.8333L10.4997 21C10.4997 22.933 12.0667 24.5 13.9997 24.5C15.9327 24.5 17.4997 22.933 17.4997 21V19.8333M10.5016 19.8333H17.4997" stroke="black" stroke-width="2" stroke-linecap="round" stroke-linejoin="round"/>
</svg>
