<svg xmlns="http://www.w3.org/2000/svg" width="16" height="16" viewBox="0 0 16 16" fill="none">
  <path fill-rule="evenodd" clip-rule="evenodd" d="M1.5 1H3.5V2H2V14H3.5V15H1.5L1 14.5V1.5L1.5 1ZM7.5 7H5.5L5 6.5V4.5L5.5 4H7.5L8 4.5V6.5L7.5 7ZM6 6H7V5H6V6ZM13.5 7H10.5L10 6.5V3.5L10.5 3H13.5L14 3.5V6.5L13.5 7ZM11 6H13V4H11V6ZM7.5 12H5.5L5 11.5V9.5L5.5 9H7.5L8 9.5V11.5L7.5 12ZM6 11H7V10H6V11ZM13.5 13H10.5L10 12.5V9.5L10.5 9H13.5L14 9.5V12.5L13.5 13ZM11 12H13V10H11V12ZM10 10H8V11H10V10ZM10 5H8V6H10V5Z" fill="#727272"/>
</svg>