<svg xmlns="http://www.w3.org/2000/svg" width="21" height="28" viewBox="0 0 21 28" fill="none">
  <path fill-rule="evenodd" clip-rule="evenodd" d="M3.56242 0H12.7387L20.504 8.10553V23.8463C20.504 25.8176 18.9129 27.4187 16.9415 27.4187H3.56242C1.60108 27.4187 5.62177e-10 25.8176 5.62177e-10 23.8463V3.56242C-3.46429e-05 1.60108 1.60108 0 3.56242 0Z" fill="#00733B"/>
  <path opacity="0.302" fill-rule="evenodd" clip-rule="evenodd" d="M12.7292 0V8.03548H20.5046L12.7292 0Z" fill="white"/>
  <path d="M8.52576 19.9631H7.19487L6.28426 18.4321L5.37362 19.9631H4.03271L5.61381 17.3013L4.22287 14.9897H5.56375L6.28423 16.1905L6.99469 14.9897H8.33561L6.95465 17.3113L8.52576 19.9631ZM8.99608 19.9631V14.9897H10.2669V18.8823H12.4284V19.9631H8.99608V19.9631ZM14.5299 20.0231C14.0295 20.0231 13.5892 19.863 13.209 19.5528C12.8387 19.2526 12.6286 18.8724 12.5986 18.4221L13.6893 18.1018C13.7193 18.342 13.8194 18.5521 13.9895 18.7123C14.1696 18.8724 14.3698 18.9524 14.5899 18.9524C14.77 18.9524 14.9201 18.9124 15.0402 18.8323C15.1503 18.7523 15.2103 18.6422 15.2103 18.5121C15.2103 18.4021 15.1603 18.312 15.0702 18.2319C14.9801 18.1619 14.8601 18.1019 14.72 18.0518C14.5799 18.0018 14.4098 17.9517 14.2396 17.9117C14.0595 17.8617 13.8794 17.8017 13.7093 17.7216C13.5292 17.6516 13.3691 17.5615 13.229 17.4514C13.0788 17.3513 12.9688 17.2013 12.8787 17.0111C12.7886 16.831 12.7386 16.6108 12.7386 16.3607C12.7386 15.9504 12.9087 15.6102 13.259 15.34C13.6092 15.0598 14.0295 14.9297 14.5198 14.9297C15.0102 14.9297 15.4404 15.0498 15.8007 15.2799C16.1609 15.5201 16.3911 15.8303 16.4811 16.2106L15.3404 16.6909C15.2903 16.4807 15.1903 16.3106 15.0502 16.1806C14.9101 16.0605 14.73 15.9904 14.5198 15.9904C14.3597 15.9904 14.2396 16.0304 14.1396 16.0905C14.0495 16.1506 14.0095 16.2406 14.0095 16.3507C14.0095 16.4508 14.0695 16.5408 14.1896 16.6109C14.3097 16.6709 14.4698 16.7209 14.6499 16.751C14.83 16.781 15.0301 16.831 15.2403 16.9011C15.4604 16.9811 15.6506 17.0612 15.8407 17.1713C16.0208 17.2713 16.1709 17.4414 16.291 17.6616C16.4211 17.8918 16.4811 18.162 16.4811 18.4722C16.4811 18.9325 16.301 19.3127 15.9407 19.5929C15.5805 19.8731 15.1103 20.0231 14.5299 20.0231Z" fill="white"/>
</svg>