<svg width="42" height="42" viewBox="0 0 42 42" fill="none" xmlns="http://www.w3.org/2000/svg">
<path d="M8.46359 0C4.31367 0 0.972168 3.34151 0.972168 7.49143V33.5364C0.972168 37.6863 4.31367 41.0278 8.46359 41.0278H22.5797V24.9885H18.3385V19.2138H22.5797V14.2803C22.5797 10.4042 25.0857 6.84524 30.8584 6.84524C33.1956 6.84524 34.924 7.06962 34.924 7.06962L34.788 12.4622C34.788 12.4622 33.0254 12.4456 31.1019 12.4456C29.0202 12.4456 28.6864 13.4047 28.6864 14.997V19.2139H34.9534L34.6803 24.9885H28.6864V41.0279H34.5085C38.6584 41.0279 41.9999 37.6864 41.9999 33.5364V7.49147C41.9999 3.34155 38.6584 4.10278e-05 34.5085 4.10278e-05H8.46355L8.46359 0Z" fill="white"/>
</svg>
