<svg width="20" height="19" viewBox="0 0 20 19" fill="none" xmlns="http://www.w3.org/2000/svg">
<g id="fa6-solid:sack-dollar" clip-path="url(#clip0_80_958)">
<path id="Vector" d="M12.5 3.5625H7.5L5.64844 0.924023C5.37109 0.526953 5.66797 0 6.16797 0H13.832C14.332 0 14.6289 0.526953 14.3516 0.924023L12.5 3.5625ZM7.5 4.75H12.5C12.6484 4.84277 12.8164 4.94668 13.0078 5.06172C15.2227 6.40879 20 9.31074 20 15.4375C20 17.4043 18.3203 19 16.25 19H3.75C1.67969 19 0 17.4043 0 15.4375C0 9.31074 4.77734 6.40879 6.99219 5.06172C7.17969 4.94668 7.35156 4.84277 7.5 4.75ZM10.7812 8.01562C10.7812 7.60742 10.4297 7.27344 10 7.27344C9.57031 7.27344 9.21875 7.60742 9.21875 8.01562V8.53516C8.92188 8.59824 8.625 8.69844 8.35156 8.85059C7.80859 9.15859 7.33984 9.69668 7.34375 10.4797C7.34766 11.233 7.8125 11.708 8.30859 11.99C8.73828 12.235 9.27344 12.3908 9.69922 12.5096L9.76562 12.5281C10.2578 12.6691 10.6172 12.7805 10.8594 12.9252C11.0586 13.0439 11.0859 13.1256 11.0898 13.2295C11.0938 13.415 11.0195 13.5264 10.8594 13.6191C10.6641 13.7342 10.3555 13.8047 10.0234 13.7936C9.58984 13.7787 9.18359 13.6488 8.65234 13.4781C8.5625 13.4484 8.46875 13.4187 8.37109 13.3891C7.96094 13.2592 7.51953 13.4707 7.38281 13.8566C7.24609 14.2426 7.46875 14.6656 7.875 14.7955C7.94922 14.8178 8.03125 14.8438 8.11328 14.8734C8.4375 14.9811 8.8125 15.1035 9.21484 15.1852V15.7344C9.21484 16.1426 9.56641 16.4766 9.99609 16.4766C10.4258 16.4766 10.7773 16.1426 10.7773 15.7344V15.2223C11.0898 15.1592 11.4023 15.0553 11.6836 14.8883C12.2422 14.558 12.6641 13.9939 12.6523 13.2184C12.6406 12.465 12.1953 11.9789 11.6914 11.6746C11.2422 11.4074 10.6797 11.2441 10.2422 11.118L10.2148 11.1105C9.71484 10.9658 9.35938 10.8619 9.10938 10.7209C8.90625 10.6059 8.90234 10.5391 8.90234 10.4723C8.90234 10.335 8.95703 10.2311 9.14453 10.1271C9.35547 10.0084 9.67578 9.93789 9.98438 9.9416C10.3594 9.94531 10.7734 10.0232 11.2031 10.1346C11.6211 10.2385 12.0469 10.0047 12.1602 9.60762C12.2734 9.21055 12.0234 8.80605 11.6055 8.69844C11.3516 8.63535 11.0703 8.57227 10.7812 8.52402V8.01562Z" fill="white"/>
</g>
<defs>
<clipPath id="clip0_80_958">
<rect width="20" height="19" fill="white"/>
</clipPath>
</defs>
</svg>
