<svg width="20" height="19" viewBox="0 0 20 19" fill="none" xmlns="http://www.w3.org/2000/svg">
<g id="Layer_1" clip-path="url(#clip0_67_87)">
<path id="Vector" d="M16.822 2.75838C16.834 2.92433 16.7733 3.10366 16.7146 3.28367C16.2152 4.83075 17.1314 6.3832 18.7272 6.69235C19.5094 6.84424 19.8061 7.23503 19.9275 8.25348C20.0403 9.1836 20.0167 10.1253 19.8575 11.0485C19.7401 11.7391 19.378 12.1065 18.6885 12.2269C17.0294 12.5173 16.0958 14.1253 16.6626 15.7186C16.908 16.4105 16.7726 16.8702 16.1958 17.3339C15.4606 17.9265 14.6459 18.4124 13.7758 18.7773C13.141 19.045 12.6422 18.9171 12.2061 18.3845C11.0491 16.9793 9.13861 17.0101 8.02631 18.4461C7.6182 18.974 7.11073 19.1273 6.4979 18.8951C5.51144 18.5235 4.59184 17.9933 3.77518 17.3252C3.21303 16.8662 3.09299 16.3964 3.35773 15.7306C4.02458 14.051 3.01764 12.338 1.22383 12.1045C0.567654 12.0188 0.190887 11.6019 0.0855258 10.7936C-0.0597414 9.74315 -0.023876 8.67545 0.191554 7.63719C0.316921 7.04967 0.711692 6.69235 1.31052 6.6174C2.9983 6.40729 4.01857 4.77522 3.4751 3.15452C3.2257 2.41243 3.36173 1.96543 3.97856 1.49435C4.73643 0.91351 5.57573 0.448322 6.46923 0.113877C7.09339 -0.11832 7.55152 0.000790069 7.98697 0.506002C9.0986 1.79747 10.9104 1.79613 12.0227 0.506002C12.4568 0.00145924 12.9163 -0.116311 13.5404 0.117893C14.5586 0.501399 15.5054 1.05377 16.3412 1.75197C16.495 1.86957 16.6188 2.02213 16.7023 2.19709C16.7859 2.37205 16.8269 2.56442 16.822 2.75838ZM13.3377 9.49611C13.3377 8.83517 13.1426 8.18905 12.7771 7.63925C12.4115 7.08946 11.8919 6.66062 11.2837 6.40684C10.6756 6.15307 10.0061 6.08572 9.35987 6.21331C8.7136 6.3409 8.11948 6.6577 7.65244 7.12374C7.18541 7.58978 6.86639 8.18419 6.73564 8.83197C6.60489 9.47975 6.66826 10.1519 6.91776 10.7635C7.16725 11.3752 7.5917 11.8991 8.13755 12.2689C8.6834 12.6388 9.32619 12.8382 9.98483 12.8419C10.4243 12.8444 10.8598 12.7596 11.2665 12.5926C11.6732 12.4256 12.043 12.1795 12.3546 11.8686C12.6662 11.5576 12.9134 11.188 13.0821 10.7808C13.2509 10.3737 13.3377 9.93706 13.3377 9.49611Z" fill="white"/>
</g>
<defs>
<clipPath id="clip0_67_87">
<rect width="20" height="19" fill="white"/>
</clipPath>
</defs>
</svg>
