<svg width="32" height="32" viewBox="0 0 32 32" fill="none" xmlns="http://www.w3.org/2000/svg">
<circle cx="16" cy="16" r="16" fill="#025D7B"/>
<path fill-rule="evenodd" clip-rule="evenodd" d="M15.7703 11.489C13.9577 11.489 12.4883 12.9584 12.4883 14.7711C12.4883 16.5837 13.9577 18.0531 15.7703 18.0531C17.5829 18.0531 19.0524 16.5837 19.0524 14.7711C19.0524 12.9584 17.5829 11.489 15.7703 11.489Z" fill="white"/>
<path fill-rule="evenodd" clip-rule="evenodd" d="M15.7715 8.20581C11.24 8.20581 7.56641 11.8794 7.56641 16.4109C7.56641 20.9425 11.24 24.6161 15.7715 24.6161C20.3031 24.6161 23.9767 20.9425 23.9767 16.4109C23.9767 11.8794 20.3031 8.20581 15.7715 8.20581ZM9.20743 16.4109C9.20743 12.7857 12.1463 9.84684 15.7715 9.84684C19.3968 9.84684 22.3356 12.7857 22.3356 16.4109C22.3356 18.0757 21.7159 19.5956 20.6947 20.7528C19.3888 19.5842 17.663 18.8725 15.7717 18.8725C13.8803 18.8725 12.1545 19.5843 10.8486 20.7529C9.82719 19.5958 9.20743 18.0758 9.20743 16.4109Z" fill="white"/>
</svg>

