<svg width="20" height="19" viewBox="0 0 20 19" fill="none" xmlns="http://www.w3.org/2000/svg">
<g id="Layer_1" clip-path="url(#clip0_67_56)">
<path id="Vector" d="M13.1076 5.10156C16.712 5.11302 19.6391 7.84066 19.9721 11.4362C20.0804 12.6113 19.8726 13.7267 19.45 14.8141C19.3912 14.9488 19.3737 15.0985 19.4 15.2436C19.5878 16.2068 19.7756 17.1701 19.9709 18.1328C20.0961 18.7691 19.7893 19.0961 19.1621 18.9708C18.2037 18.7799 17.2447 18.589 16.2889 18.3848C16.1482 18.351 16.0006 18.3646 15.8682 18.4236C11.7205 20.2051 7.18463 17.6855 6.39089 13.1655C5.73612 9.43449 8.44473 5.66783 12.1324 5.17282C12.4729 5.12701 12.8147 5.11302 13.1076 5.10156Z" fill="white"/>
<path id="Vector_2" d="M5.28278 13.7137C4.88403 13.6539 4.52033 13.5075 4.16227 13.3472C4.02201 13.2817 3.86416 13.266 3.71407 13.3026C2.75821 13.5062 1.79921 13.6958 0.840209 13.8861C0.217987 14.0095 -0.0893686 13.6806 0.0383309 13.0411C0.22988 12.0785 0.417674 11.1152 0.608597 10.1525C0.635525 10.0072 0.616914 9.857 0.555389 9.72304C-1.16605 5.54344 1.27526 0.947099 5.65648 0.115507C8.56102 -0.437403 11.5914 1.0699 12.941 3.74219C12.9635 3.78673 12.9817 3.83381 13.0036 3.88726C8.43145 3.90953 4.29561 8.25455 5.28278 13.7137Z" fill="white"/>
</g>
<defs>
<clipPath id="clip0_67_56">
<rect width="20" height="19" fill="white"/>
</clipPath>
</defs>
</svg>
