<svg width="42" height="42" viewBox="0 0 42 42" fill="none" xmlns="http://www.w3.org/2000/svg">
<path fill-rule="evenodd" clip-rule="evenodd" d="M7.69097 2.56445C6.33082 2.56445 5.02637 3.10477 4.06459 4.06655C3.10282 5.02832 2.5625 6.33277 2.5625 7.69293V33.3353C2.5625 34.6954 3.10282 35.9999 4.06459 36.9617C5.02637 37.9234 6.33082 38.4638 7.69097 38.4638H33.3333C34.6935 38.4638 35.9979 37.9234 36.9597 36.9617C37.9215 35.9999 38.4618 34.6954 38.4618 33.3353V7.69293C38.4618 6.33277 37.9215 5.02832 36.9597 4.06655C35.9979 3.10477 34.6935 2.56445 33.3333 2.56445H7.69097ZM10.5168 13.583C11.3295 13.583 12.1089 13.2601 12.6835 12.6855C13.2582 12.1108 13.581 11.3314 13.581 10.5187C13.581 9.70602 13.2582 8.92661 12.6835 8.35195C12.1089 7.77729 11.3295 7.45445 10.5168 7.45445C9.70407 7.45445 8.92466 7.77729 8.35 8.35195C7.77534 8.92661 7.4525 9.70602 7.4525 10.5187C7.4525 11.3314 7.77534 12.1108 8.35 12.6855C8.92466 13.2601 9.70407 13.583 10.5168 13.583ZM13.081 32.8558V15.9857H7.95252V32.8558H13.081ZM16.4863 15.9857H21.6148V18.2448C22.3712 17.0601 24.0329 15.4651 27.1228 15.4651C30.8101 15.4651 32.8128 17.9088 32.8128 22.5578C32.8128 22.7809 32.8333 23.7989 32.8333 23.7989V32.8532H27.7048V23.8015C27.7048 22.5578 27.4433 20.1141 24.679 20.1141C21.9122 20.1141 21.6789 23.186 21.6148 25.1964V32.8532H16.4863V15.9857Z" fill="white"/>
</svg>
