<svg width="20" height="16" viewBox="0 0 20 16" fill="none" xmlns="http://www.w3.org/2000/svg">
<g id="Layer_1" clip-path="url(#clip0_67_124)">
<path id="Vector" d="M6.92711 16.0011C5.21949 16.0011 3.51133 16.0011 1.80264 16.0011C0.548784 16.0011 -0.0853602 15.27 0.00924032 14.0484C0.234518 11.1492 2.3486 8.95273 4.8491 8.37336C6.24326 8.05026 7.65024 8.08092 9.05401 8.35842C9.27368 8.40244 9.36107 8.44254 9.25845 8.7051C9.02997 9.29076 9.24001 9.878 9.79078 10.2475C9.96154 10.3623 9.99521 10.4731 10.0008 10.6578C10.0153 11.0926 10.0008 11.4502 9.55347 11.7584C9.10613 12.0666 9.05402 12.7552 9.30735 13.2348C9.56069 13.7143 9.83327 14.1718 10.1283 14.6207C10.5107 15.2016 11.197 15.3832 11.8479 15.1089C12.0812 15.0098 12.9254 15.3188 12.9968 15.5444C13.0497 15.7134 13.0505 15.8966 12.806 15.9327C12.5835 15.9718 12.3584 15.9949 12.1325 16.0019C10.3977 16.0035 8.66279 16.0011 6.92711 16.0011Z" fill="white"/>
<path id="Vector_2" d="M11.3551 7.59647C11.562 7.64442 11.7744 7.81029 12.0005 7.94236C12.1608 8.03591 12.2587 8.04141 12.4014 7.90935C12.8007 7.54024 13.2817 7.26663 13.8067 7.10986C14.004 7.05168 14.0729 6.95656 14.0673 6.74981C14.0408 5.74043 14.0048 5.80646 15.0518 5.80646H15.0911C16.0258 5.82769 16.2295 5.59264 16.1605 6.79462C16.1509 6.96757 16.2078 7.04697 16.3778 7.09728C16.917 7.25526 17.4099 7.53748 17.8152 7.92035C17.9716 8.06814 18.0742 8.02098 18.2257 7.93372C19.1076 7.42274 19.041 7.40937 19.5525 8.29612C19.5597 8.30713 19.5678 8.31813 19.5742 8.32992C20.0552 9.20095 20.331 9.1868 19.2262 9.74495C19.0619 9.82906 19.0539 9.92183 19.0915 10.0893C19.2146 10.6144 19.2146 11.16 19.0915 11.6851C19.0426 11.8895 19.1044 11.972 19.2631 12.053C20.3246 12.5907 20.0504 12.5954 19.5958 13.4169C19.5894 13.4287 19.5814 13.4389 19.5742 13.4507C19.0667 14.2872 19.1733 14.4452 18.2009 13.8273C18.0598 13.7377 17.9603 13.7314 17.8241 13.858C17.4175 14.2388 16.9254 14.5207 16.3874 14.681C16.1878 14.7384 16.1581 14.8508 16.1637 15.0253C16.1982 16.1094 16.1349 15.9467 15.1696 15.9569C14.9291 15.9569 14.6886 15.953 14.4481 15.9569C14.1763 15.9624 14.0256 15.8272 14.0705 15.5741C14.1787 14.9601 13.9502 14.6142 13.3209 14.4688C13.0291 14.402 12.7597 14.2094 12.5513 13.9916C12.3172 13.7463 12.1079 13.7212 11.8474 13.9295C11.7481 13.995 11.6451 14.0549 11.5387 14.1087C11.2886 14.266 11.0938 14.2321 10.9431 13.968C10.7354 13.6032 10.5182 13.244 10.3017 12.8839C10.1574 12.6426 10.2071 12.4327 10.462 12.3337C11.0096 12.1269 11.2357 11.818 11.0569 11.215C10.9559 10.8746 11.0128 10.4855 11.113 10.1278C11.1724 9.91632 11.1002 9.80469 10.9038 9.69857C10.0524 9.23868 10.0628 9.29607 10.5623 8.4502C10.6889 8.23637 10.8188 8.02333 10.9455 7.80872C10.9785 7.73257 11.0372 7.66989 11.1119 7.63123C11.1865 7.59257 11.2724 7.5803 11.3551 7.59647ZM16.7562 10.888C16.7576 10.6756 16.7162 10.465 16.6345 10.2682C16.5527 10.0715 16.4323 9.89255 16.2799 9.74154C16.1275 9.59054 15.9463 9.47048 15.7466 9.38824C15.5468 9.306 15.3325 9.26319 15.1159 9.26227C14.6764 9.26227 14.2549 9.43347 13.9442 9.7382C13.6334 10.0429 13.4588 10.4562 13.4588 10.8872C13.4588 11.3181 13.6334 11.7314 13.9442 12.0362C14.2549 12.3409 14.6764 12.5121 15.1159 12.5121C15.3327 12.5122 15.5474 12.4702 15.7475 12.3884C15.9476 12.3066 16.1292 12.1867 16.2817 12.0357C16.4343 11.8847 16.5547 11.7054 16.6362 11.5084C16.7176 11.3114 16.7584 11.1005 16.7562 10.888Z" fill="white"/>
<path id="Vector_3" d="M3.49125 3.43525C3.48809 2.76132 3.68878 2.1016 4.06795 1.5395C4.44712 0.9774 4.98774 0.538163 5.62147 0.277321C6.25519 0.0164781 6.95356 -0.0542563 7.62828 0.07406C8.303 0.202376 8.92377 0.523982 9.4121 0.998215C9.90044 1.47245 10.2344 2.07801 10.3718 2.73835C10.5092 3.39869 10.4438 4.08414 10.184 4.70805C9.9241 5.33196 9.48142 5.86632 8.91189 6.24355C8.34235 6.62078 7.67153 6.82395 6.98425 6.82738C6.52775 6.82955 6.07529 6.74354 5.65269 6.57424C5.23009 6.40495 4.84564 6.15569 4.52129 5.8407C4.19693 5.52571 3.93902 5.15116 3.76229 4.73843C3.58555 4.3257 3.49345 3.88288 3.49125 3.43525Z" fill="white"/>
</g>
<defs>
<clipPath id="clip0_67_124">
<rect width="20" height="16" fill="white"/>
</clipPath>
</defs>
</svg>
