<svg width="24" height="24" viewBox="0 0 24 24" fill="none" xmlns="http://www.w3.org/2000/svg">
<path d="M7.77585 2.43881L8.85285 2.09481C9.86085 1.77281 10.9389 2.29381 11.3709 3.31181L12.2309 5.33981C12.6059 6.22281 12.3979 7.26181 11.7169 7.90781L9.82385 9.70581C9.94085 10.7818 10.3019 11.8408 10.9079 12.8828C11.4837 13.891 12.2559 14.7734 13.1789 15.4778L15.4549 14.7178C16.3169 14.4308 17.2559 14.7618 17.7849 15.5388L19.0169 17.3488C19.6329 18.2528 19.5219 19.4988 18.7589 20.2648L17.9409 21.0858C17.1269 21.9028 15.9649 22.1998 14.8889 21.8638C12.3499 21.0718 10.0159 18.7208 7.88585 14.8108C5.75285 10.8948 5.00085 7.57081 5.62785 4.84281C5.89185 3.69481 6.70985 2.77981 7.77785 2.43881H7.77585Z" fill="#025D7B"/>
</svg>
