<svg width="297" height="79" viewBox="0 0 297 79" fill="none" xmlns="http://www.w3.org/2000/svg">
<mask id="mask0_227_630" style="mask-type:luminance" maskUnits="userSpaceOnUse" x="0" y="0" width="297" height="79">
<path d="M297 0H0V78.5172H297V0Z" fill="white"/>
</mask>
<g mask="url(#mask0_227_630)">
<path opacity="0.5" d="M68.5989 53.0711C68.4841 52.7395 68.2498 52.4625 67.9417 52.2942C67.4637 52.0538 61.6105 49.7885 58.1763 48.4757L55.0703 47.2836L57.8477 49.0734C60.9536 51.0721 66.2097 54.4729 66.6877 54.7118C66.8462 54.7935 67.0194 54.8427 67.1972 54.857C67.3751 54.8711 67.554 54.8498 67.7235 54.7944C67.893 54.7389 68.0498 54.6502 68.1847 54.5337C68.3197 54.417 68.4301 54.2749 68.5095 54.1154C68.6723 53.7923 68.7044 53.4191 68.5989 53.0732V53.0711ZM70.54 42.8385C70.0621 42.7492 64.5673 42.4509 60.0876 42.2119L56.7725 42.0332L59.9978 42.8982C64.3578 44.0607 69.6439 45.434 70.1504 45.5234C70.2101 45.5234 70.2708 45.5531 70.3594 45.5531C70.682 45.5556 70.995 45.4426 71.2414 45.2347C71.4879 45.0268 71.6518 44.7376 71.7033 44.4195C71.7602 44.0629 71.6738 43.6984 71.4626 43.4053C71.3541 43.2544 71.2168 43.1266 71.0584 43.0293C70.9 42.9319 70.7238 42.8672 70.54 42.8385ZM56.7725 36.485L60.0876 36.3062C63.761 36.0974 70.0324 35.7691 70.54 35.6796C70.8963 35.6213 71.2169 35.4292 71.4362 35.1425C71.6472 34.8494 71.7337 34.4849 71.6768 34.1283C71.6082 33.7788 71.4103 33.4681 71.1224 33.258C70.8346 33.0478 70.478 32.9538 70.1239 32.9947C69.5861 33.0841 63.5239 34.6655 59.9713 35.6199L56.7725 36.485Z" fill="#5AC7D3"/>
<path d="M55.0738 31.2342L58.1798 30.0408C61.614 28.728 67.4677 26.4613 67.9456 26.2223C68.1045 26.142 68.2459 26.0312 68.3619 25.8963C68.4778 25.7614 68.5661 25.605 68.6215 25.436C68.6769 25.2671 68.6986 25.0888 68.6851 24.9115C68.6716 24.7342 68.6234 24.5613 68.5429 24.4026C68.4626 24.244 68.3516 24.1027 68.2165 23.9868C68.0816 23.871 67.925 23.7828 67.7558 23.7274C67.5867 23.672 67.4083 23.6505 67.2308 23.6639C67.0532 23.6774 66.88 23.7257 66.7213 23.8059C66.2434 24.0465 60.9873 27.4453 57.8813 29.4443L55.0738 31.2342ZM51.8185 26.7891L54.3868 24.7011C57.8808 21.867 62.1217 18.4077 62.48 18.0468C62.6061 17.9225 62.7055 17.7736 62.7722 17.6095C62.839 17.4454 62.8716 17.2695 62.868 17.0924C62.8702 16.8254 62.7925 16.5639 62.6449 16.3412C62.4974 16.1185 62.2868 15.9448 62.0398 15.8423C61.793 15.7399 61.5212 15.7133 61.2591 15.766C60.997 15.8186 60.7567 15.9481 60.5687 16.1381C60.2103 16.4959 56.2383 21.3588 53.9073 24.2225L51.8185 26.7891ZM54.805 11.9331C54.9533 11.6061 54.9849 11.2382 54.8944 10.8908C54.8419 10.7246 54.7566 10.5703 54.6439 10.4371C54.5311 10.304 54.393 10.1945 54.2375 10.1152C53.9159 9.95784 53.5455 9.93212 53.2053 10.0435C52.8649 10.1549 52.5816 10.3947 52.4157 10.7116C52.1468 11.2188 49.6383 17.6921 48.5633 20.4669L47.3686 23.5694L49.1604 20.7952C50.7732 18.2585 54.5361 12.4101 54.805 11.9331ZM44.4421 6.95086C44.086 6.89806 43.7235 6.98739 43.4329 7.1995C43.1422 7.41161 42.9468 7.72955 42.889 8.08447C42.7996 8.65127 42.4111 15.5724 42.2618 18.5256L42.0825 21.8369L42.9484 18.6449C43.904 15.095 45.487 9.03931 45.5765 8.50334C45.6051 8.32685 45.5982 8.14648 45.5565 7.97272C45.5148 7.79885 45.439 7.6351 45.3335 7.49069C45.2281 7.34629 45.0949 7.22419 44.9419 7.13156C44.7889 7.03893 44.6189 6.97749 44.4421 6.95086ZM35.7517 8.08447C35.7277 7.90718 35.6684 7.73649 35.5774 7.5823C35.4865 7.42822 35.3656 7.29372 35.2219 7.18687C35.0783 7.08002 34.9146 7.00286 34.7408 6.96008C34.5669 6.91718 34.3862 6.90944 34.2092 6.9372C34.0323 6.96497 33.8627 7.02778 33.7104 7.122C33.558 7.21611 33.4261 7.33969 33.3222 7.48546C33.2183 7.63123 33.1446 7.79623 33.1054 7.97079C33.0662 8.14535 33.0623 8.32605 33.094 8.5022C33.1834 9.0393 34.9756 15.7812 35.722 18.6438L36.588 21.8654L36.4086 18.554C36.1397 14.0211 35.8412 8.56024 35.7517 8.08447ZM24.2539 24.6714L26.8221 26.7594L24.7319 24.1939C22.8502 21.8971 18.4605 16.4975 18.0704 16.1095C17.8123 15.8653 17.4703 15.7292 17.1148 15.7292C16.7593 15.7292 16.4172 15.8653 16.1592 16.1095C16.0315 16.2338 15.9301 16.3821 15.8609 16.5461C15.7916 16.7101 15.756 16.8863 15.756 17.0642C15.756 17.2421 15.7916 17.4182 15.8609 17.5822C15.9301 17.7462 16.0315 17.8947 16.1592 18.0188C16.5488 18.4048 21.4169 22.3734 24.2539 24.6714ZM10.7252 26.2223C11.2032 26.4629 17.0564 28.728 20.491 30.0408L23.597 31.2342L20.8193 29.444C17.0267 26.9987 12.3974 24.0444 11.9793 23.8056C11.6577 23.6482 11.2873 23.6225 10.947 23.734C10.6067 23.8454 10.3234 24.085 10.1574 24.4021C10.0697 24.5595 10.0164 24.7339 10.001 24.9136C9.98554 25.0932 10.0084 25.2741 10.0679 25.4443C10.191 25.7713 10.4232 26.0461 10.7252 26.2223ZM8.09714 35.6793C8.63493 35.7686 14.8766 36.0969 18.5496 36.3057L21.8646 36.4846L18.6395 35.6196C14.2795 34.457 8.99326 33.0541 8.51533 32.9943C8.3385 32.9639 8.15734 32.9692 7.98266 33.0102C7.80788 33.051 7.64322 33.1266 7.49836 33.2324C7.3535 33.3381 7.23129 33.4719 7.13923 33.6258C7.04717 33.7796 6.98697 33.9504 6.9624 34.128C6.9055 34.4845 6.99198 34.8491 7.20307 35.1421C7.42189 35.4283 7.74165 35.6204 8.09714 35.6793ZM21.8943 42.0035L18.5793 42.1827C14.9058 42.3915 8.63447 42.7198 8.12684 42.8092C7.94921 42.8345 7.7784 42.895 7.62444 42.9873C7.47059 43.0795 7.33677 43.2016 7.23083 43.3463C7.01975 43.6395 6.93315 44.0039 6.99005 44.3606C7.01576 44.5338 7.07676 44.6999 7.16927 44.8486C7.26178 44.9974 7.38377 45.1257 7.52772 45.2256C7.75917 45.4021 8.04286 45.4966 8.33394 45.4942C8.40495 45.499 8.47619 45.4889 8.54298 45.4645C9.08077 45.375 15.1134 43.7938 18.6957 42.8393L21.8943 42.0035ZM23.5967 47.2539L20.4907 48.4472C17.0564 49.7601 11.2028 52.0268 10.7549 52.2658C10.4844 52.4032 10.2677 52.6273 10.1396 52.9021C10.0114 53.1769 9.97916 53.4868 10.0479 53.7821C10.1166 54.0774 10.2824 54.3411 10.5188 54.5314C10.7552 54.7215 11.0486 54.8272 11.3521 54.8312C11.5599 54.8278 11.7641 54.7767 11.9491 54.6822C12.397 54.4416 16.9962 51.4902 20.7892 49.0441L23.5967 47.2539Z" fill="#5AC7D3"/>
<path opacity="0.1" d="M26.8459 51.7285L24.2776 53.8166C21.4108 56.1415 16.5729 60.1099 16.1844 60.4708C16.0569 60.5949 15.9554 60.7433 15.8862 60.9073C15.817 61.0713 15.7812 61.2474 15.7812 61.4254C15.7812 61.6034 15.817 61.7795 15.8862 61.9434C15.9554 62.1074 16.0569 62.2559 16.1844 62.38C16.4402 62.6286 16.7831 62.7678 17.1401 62.7678C17.497 62.7678 17.8399 62.6286 18.0958 62.38C18.4838 62.022 22.4261 57.1593 24.7571 54.2956L26.8459 51.7285ZM23.8595 66.585C23.7767 66.7416 23.7256 66.913 23.7093 67.0893C23.6931 67.2657 23.7118 67.4436 23.7645 67.6127C23.8173 67.7819 23.9029 67.9389 24.0166 68.0748C24.1302 68.2108 24.2698 68.3228 24.4269 68.4049C24.6119 68.4995 24.8162 68.5506 25.024 68.554C25.1651 68.5487 25.3053 68.5287 25.4422 68.4942C25.7735 68.3794 26.0504 68.1454 26.2187 67.838C26.4595 67.3907 28.4286 62.2894 30.0413 58.0833L31.2359 54.9806L29.4443 57.755C27.8912 60.2607 24.1283 66.0779 23.8595 66.585ZM33.0871 70.0151C33.0302 70.3716 33.1167 70.7362 33.3279 71.0292C33.5354 71.3144 33.8461 71.5071 34.1939 71.5664C34.2537 71.5664 34.3432 71.596 34.4029 71.596C34.685 71.5983 34.9593 71.5035 35.1794 71.3274C35.3244 71.2216 35.4466 71.0879 35.5389 70.9342C35.6313 70.7806 35.6919 70.6099 35.7172 70.4323C35.8067 69.8952 36.165 63.6603 36.3445 59.9612L36.5238 56.6498L35.6578 59.8714C34.5506 64.2268 33.147 69.508 33.0871 70.0151Z" fill="#5AC7D3"/>
<path opacity="0.3" d="M42.0781 56.6807L42.2575 59.9922C42.4666 63.6615 42.7953 69.9261 42.8847 70.4331C42.9407 70.7493 43.1058 71.0358 43.3514 71.2429C43.5968 71.4501 43.9072 71.5646 44.2287 71.5668C44.2997 71.5716 44.3709 71.5615 44.4377 71.5372C44.6154 71.5119 44.7863 71.4512 44.9401 71.3591C45.094 71.2668 45.2279 71.1447 45.3339 70.9999C45.5449 70.7069 45.6314 70.3423 45.5745 69.9858C45.4851 69.4487 43.902 63.4226 42.9465 59.8442L42.0781 56.6807ZM49.1557 57.7545L47.3639 54.9803L48.5585 58.0828C49.9025 61.5134 52.1421 67.3606 52.3813 67.838C52.4936 68.0592 52.6642 68.2455 52.8747 68.377C53.0852 68.5084 53.3277 68.58 53.5759 68.584C53.7929 68.5772 54.0063 68.5264 54.2031 68.4349C54.52 68.2698 54.7647 67.9935 54.8901 67.6592C54.9499 67.4939 54.9729 67.3175 54.9575 67.1424C54.942 66.9671 54.8885 66.7975 54.8006 66.6451C54.5314 66.1075 51.1565 60.8571 49.1557 57.7545ZM54.3821 53.8166L51.8138 51.7285L53.9042 54.294C56.2316 57.1577 60.1756 61.9904 60.5655 62.3784C60.8214 62.6271 61.1643 62.7662 61.5213 62.7662C61.8782 62.7662 62.2211 62.6271 62.4769 62.3784C62.7259 62.1228 62.8652 61.7803 62.8652 61.4238C62.8652 61.0672 62.7259 60.7247 62.4769 60.4692C62.117 60.1412 57.8761 56.6807 54.3821 53.8166Z" fill="#5AC7D3"/>
<path d="M26.2839 10.7094C26.2035 10.5506 26.0925 10.4094 25.9575 10.2936C25.8224 10.1777 25.6658 10.0895 25.4966 10.0342C25.3275 9.9788 25.149 9.95718 24.9714 9.97072C24.7939 9.98426 24.6209 10.0325 24.462 10.1128C24.3033 10.1932 24.1618 10.304 24.0457 10.4389C23.9298 10.5738 23.8416 10.7303 23.7862 10.8993C23.7306 11.0683 23.7091 11.2465 23.7227 11.4239C23.7361 11.6011 23.7845 11.7741 23.8649 11.9327C24.1057 12.4101 27.5082 17.6605 29.5094 20.7631L31.3012 23.5375L30.1066 20.4348C28.7924 17.0039 26.5214 11.1571 26.2839 10.7094Z" fill="#5AC7D3"/>
<path d="M51.8225 23.4478C51.9443 23.2741 51.9975 23.0617 51.9718 22.8513C51.9563 22.7483 51.9189 22.6498 51.8622 22.5622C51.8056 22.4749 51.7309 22.4005 51.6432 22.3442C51.5011 22.2505 51.3354 22.1988 51.1652 22.195C51.0421 22.1964 50.9212 22.2269 50.812 22.2839C50.703 22.341 50.6091 22.4231 50.538 22.5233C50.3289 22.792 48.328 26.2513 47.1334 28.311L46.4171 29.5336L47.373 28.4596C48.9256 26.6994 51.6135 23.7179 51.8225 23.4478ZM46.2975 20.3732C46.3309 20.2733 46.3442 20.1678 46.3368 20.0628C46.3293 19.9578 46.3012 19.8552 46.254 19.7611C46.2069 19.6669 46.1416 19.5829 46.062 19.514C45.9824 19.445 45.8899 19.3923 45.7899 19.3591C45.7126 19.3323 45.6306 19.3222 45.5491 19.3294C45.3806 19.3304 45.2164 19.3822 45.0778 19.478C44.9392 19.5739 44.8329 19.7093 44.7727 19.8665C44.6523 20.1948 43.7293 24.5501 43.3092 26.4297L43.0106 27.8327L43.578 26.5203C44.3862 24.7902 46.2081 20.7031 46.2975 20.3732ZM39.3392 27.2362L39.4885 25.8332C39.6975 23.9536 40.1454 19.5089 40.1454 19.151C40.1406 18.9404 40.0537 18.7402 39.9029 18.5929C39.7522 18.4457 39.5498 18.3633 39.339 18.3633C39.1282 18.3633 38.9258 18.4457 38.775 18.5929C38.6243 18.7402 38.5373 18.9404 38.5326 19.151C38.5326 19.5386 39.0402 24.3416 39.1895 25.8332L39.3392 27.2362ZM35.0386 26.5203L35.606 27.8327L35.3074 26.4297C34.9193 24.5801 33.9635 20.2245 33.8439 19.8665C33.7901 19.7109 33.6895 19.5759 33.5558 19.4797C33.4221 19.3836 33.2618 19.331 33.0971 19.3294C33.0157 19.3222 32.9337 19.3323 32.8564 19.3591C32.6583 19.4316 32.4953 19.577 32.401 19.7654C32.3067 19.954 32.2879 20.1713 32.3488 20.3732C32.4703 20.6734 34.0831 24.3725 35.0386 26.5203ZM26.8559 23.4478C27.0051 23.6566 28.4983 25.3273 31.3057 28.4584L32.2612 29.5323L31.5445 28.3093C30.5886 26.6698 28.3495 22.8212 28.14 22.523C28.0823 22.4392 28.007 22.3691 27.9192 22.3176C27.8315 22.2662 27.7337 22.2344 27.6324 22.2247H27.512C27.3272 22.2299 27.1497 22.2976 27.0086 22.4168C26.8673 22.5361 26.7711 22.6997 26.7355 22.881C26.7118 22.9784 26.7103 23.0799 26.7311 23.178C26.752 23.2761 26.7946 23.3682 26.8559 23.4478ZM28.349 31.4725L29.5733 32.1883L28.5296 31.234C26.7675 29.6529 23.7812 26.9977 23.5135 26.7889C23.3704 26.6945 23.2034 26.6428 23.0319 26.6398C22.904 26.6375 22.7775 26.6662 22.6631 26.7233C22.5488 26.7806 22.4499 26.8644 22.375 26.9681C22.3124 27.0516 22.2674 27.147 22.2424 27.2484C22.2175 27.3498 22.2134 27.455 22.2302 27.5581C22.2469 27.6611 22.2842 27.7597 22.34 27.8479C22.3956 27.9362 22.4686 28.0125 22.5545 28.072C22.8542 28.2805 26.3185 30.2791 28.349 31.4725ZM19.9272 33.801C20.2558 33.8904 24.1681 34.7554 26.4975 35.2629L27.9021 35.5612L26.5882 34.9944C24.4381 34.0399 20.7646 32.4289 20.436 32.3086C20.3583 32.2839 20.2767 32.2738 20.1952 32.2789C20.0295 32.2764 19.8674 32.3273 19.7327 32.424C19.5982 32.5207 19.4986 32.6583 19.4484 32.8161C19.4132 32.9137 19.4004 33.0179 19.4107 33.1211C19.4211 33.2243 19.4544 33.3239 19.5082 33.4125C19.5453 33.504 19.6021 33.5862 19.6745 33.6533C19.7469 33.7205 19.8331 33.7709 19.9272 33.801ZM18.645 39.8255C18.7954 39.9767 18.9991 40.0629 19.2125 40.0659C19.5111 40.0659 23.0051 39.708 25.9019 39.4098L27.3065 39.2606L25.9019 39.1115C24.0207 38.9027 19.5708 38.4553 19.2125 38.4553C19.1064 38.4548 19.0014 38.4753 18.9034 38.5157C18.8053 38.556 18.7163 38.6153 18.6414 38.6901C18.5664 38.765 18.507 38.854 18.4667 38.9519C18.4263 39.0498 18.4058 39.1548 18.4063 39.2606C18.4092 39.4728 18.4949 39.6754 18.645 39.8255ZM27.8724 42.9577L26.4678 43.256C24.1684 43.763 20.2261 44.5984 19.8975 44.6878C19.7975 44.7211 19.705 44.7738 19.6254 44.8427C19.5458 44.9117 19.4805 44.9956 19.4334 45.0899C19.3862 45.184 19.3581 45.2865 19.3506 45.3915C19.3432 45.4966 19.3565 45.6021 19.3899 45.702C19.4182 45.8019 19.4668 45.8948 19.5327 45.9752C19.5985 46.0555 19.6802 46.1214 19.7726 46.169C19.865 46.2165 19.9661 46.2446 20.0698 46.2515C20.1735 46.2584 20.2776 46.244 20.3754 46.209C20.7041 46.0887 24.7952 44.2998 26.5276 43.5233L27.8724 42.9577Z" fill="#84CEBF"/>
<path opacity="0.1" d="M26.8443 55.0701C26.7812 55.1534 26.7356 55.2487 26.7103 55.3502C26.6852 55.4516 26.6807 55.5572 26.6974 55.6603C26.7142 55.7635 26.7517 55.8623 26.8077 55.9506C26.8637 56.0389 26.937 56.1149 27.0232 56.174C27.197 56.2862 27.4061 56.3302 27.6104 56.2971C27.8146 56.2639 27.9992 56.1562 28.1284 55.9948C28.3375 55.6967 30.7861 51.4904 31.533 50.2073L32.2496 48.9844L31.2942 50.0266C29.3528 52.1764 27.0237 54.8016 26.8443 55.0701ZM32.8472 59.1271C32.9451 59.162 33.0491 59.1765 33.1528 59.1697C33.2565 59.1627 33.3576 59.1346 33.45 59.0872C33.5424 59.0396 33.6241 58.9736 33.6899 58.8932C33.7558 58.8129 33.8044 58.7199 33.8327 58.62C33.9531 58.2917 34.8761 53.9365 35.2963 52.0569L35.5948 50.6539L35.0274 51.9663C34.2509 53.6964 32.4591 57.7835 32.3387 58.1118C32.2858 58.3136 32.3081 58.5277 32.4015 58.7143C32.4949 58.9009 32.653 59.0472 32.8464 59.126L32.8472 59.1271Z" fill="#84CEBF"/>
<path opacity="0.3" d="M39.3281 60.1708C39.4326 60.1706 39.5359 60.1494 39.6321 60.1086C39.7281 60.0677 39.815 60.0079 39.8874 59.9327C39.9599 59.8576 40.0164 59.7686 40.0538 59.6712C40.0911 59.5736 40.1084 59.4698 40.1046 59.3655C40.1046 59.0673 39.7463 55.577 39.4477 52.6832L39.2984 51.2803L39.1491 52.6832C38.9401 54.5629 38.4922 59.0075 38.4922 59.3655C38.5031 59.5806 38.5956 59.7836 38.7508 59.9332C38.9061 60.0828 39.1125 60.1676 39.3281 60.1708ZM44.7933 58.6214C44.8252 58.7224 44.877 58.8158 44.9457 58.8962C45.0145 58.9767 45.0987 59.0425 45.1935 59.0898C45.2881 59.1371 45.3913 59.1649 45.4971 59.1716C45.6028 59.1782 45.7086 59.1636 45.8085 59.1286C45.9063 59.099 45.9966 59.0492 46.0739 58.9824C46.151 58.9156 46.2132 58.8333 46.2564 58.7409C46.3496 58.5563 46.3709 58.3438 46.3161 58.1444C46.2267 57.8161 44.5842 54.1472 43.6276 51.999L43.0613 50.6846L43.3599 52.0875C43.8378 54.3837 44.6741 58.3217 44.7933 58.6214ZM50.4972 55.9943C50.6265 56.1556 50.8111 56.2633 51.0152 56.2964C51.2195 56.3295 51.4286 56.2857 51.6024 56.1735C51.7699 56.0487 51.8822 55.8638 51.9157 55.6578C51.9491 55.4517 51.9011 55.2407 51.7817 55.0695C51.5727 54.8009 48.915 51.8177 47.3319 50.0588L46.376 49.0166L47.0927 50.2396C48.0485 51.8479 50.3179 55.696 50.4972 55.9943Z" fill="#84CEBF"/>
<path opacity="0.5" d="M50.2868 47.0453L49.0625 46.3293L50.1059 47.2841C51.5103 48.5372 54.8543 51.5204 55.122 51.7292C55.293 51.8496 55.5046 51.8983 55.7111 51.8649C55.9177 51.8314 56.103 51.7183 56.2271 51.55C56.3489 51.3765 56.402 51.164 56.3764 50.9536C56.3608 50.8505 56.3235 50.752 56.2669 50.6646C56.2102 50.5771 56.1355 50.5028 56.0477 50.4464C55.8118 50.2373 52.3178 48.2089 50.2868 47.0453ZM58.7087 44.7183C58.38 44.6289 54.4679 43.7635 52.1383 43.2564L50.735 42.9582L52.0489 43.525C53.7808 44.3006 57.8724 46.0904 58.2011 46.2106C58.2788 46.2354 58.3604 46.2454 58.4418 46.2403C58.6085 46.2472 58.7728 46.1981 58.9081 46.1007C59.0435 46.0033 59.1423 45.8633 59.1886 45.7032C59.2544 45.5077 59.2437 45.2947 59.1589 45.1067C59.1198 45.0111 59.0585 44.9261 58.9804 44.8586C58.9021 44.7911 58.809 44.743 58.7087 44.7183ZM51.3619 39.2591L52.7663 39.4082C55.1256 39.6487 59.0976 40.0644 59.4559 40.0644C59.5633 40.0668 59.6701 40.0477 59.7701 40.0083C59.87 39.9689 59.961 39.9099 60.0378 39.8349C60.1147 39.7599 60.1756 39.6702 60.2173 39.5713C60.2591 39.4725 60.2805 39.3662 60.2805 39.2589C60.2805 39.1516 60.2591 39.0453 60.2173 38.9464C60.1756 38.8475 60.1147 38.7578 60.0378 38.6828C59.961 38.6077 59.87 38.5488 59.7701 38.5094C59.6701 38.4701 59.5633 38.4509 59.4559 38.4533C59.0976 38.4533 54.6477 38.9006 52.7663 39.1096L51.3619 39.2591Z" fill="#84CEBF"/>
<path d="M50.7647 35.5305L52.1693 35.2322C54.4687 34.7252 58.4109 33.8898 58.7103 33.7703C58.9114 33.7033 59.0812 33.5655 59.1883 33.3827C59.2813 33.1982 59.3027 32.9856 59.248 32.7862C59.2184 32.6886 59.1685 32.5983 59.1016 32.5212C59.0346 32.4442 58.9521 32.3821 58.8596 32.3389C58.7488 32.2815 58.626 32.2508 58.5012 32.2495C58.4198 32.2444 58.3382 32.2545 58.2604 32.2792C57.9318 32.3995 53.8407 34.1884 52.1083 34.9649L50.7647 35.5305ZM49.0625 32.1894L50.2868 31.4734C51.9293 30.519 55.7816 28.2815 56.0807 28.0726C56.1684 28.0164 56.2431 27.942 56.2997 27.8546C56.3564 27.7671 56.3938 27.6685 56.4093 27.5655C56.435 27.3551 56.3818 27.1427 56.26 26.969C56.1852 26.8656 56.0864 26.7816 55.972 26.7245C55.8578 26.6674 55.7313 26.6386 55.6036 26.6407C55.4333 26.6445 55.2676 26.6962 55.1256 26.7899C54.8848 26.969 52.2587 29.2956 50.1094 31.2349L49.0625 32.1894Z" fill="#84CEBF"/>
<path opacity="0.5" d="M78.1509 38.1545C78.0059 38.0101 77.8334 37.8961 77.6436 37.8191C77.4538 37.7423 77.2505 37.7043 77.0457 37.7072C76.4486 37.7072 69.9084 38.3634 64.5025 38.9302L61.1875 39.2585L64.5025 39.5868C68.9224 40.0341 76.3884 40.8099 77.0457 40.8099C77.2501 40.8112 77.4526 40.7721 77.6418 40.6947C77.8308 40.6172 78.0026 40.503 78.147 40.3587C78.2915 40.2143 78.4059 40.0427 78.4834 39.8539C78.561 39.665 78.6001 39.4627 78.5986 39.2585C78.6085 39.0531 78.5735 38.848 78.4962 38.6574C78.4188 38.4667 78.3011 38.2953 78.1509 38.1545Z" fill="#3195BF"/>
<path d="M60.1466 32.4868L63.4019 31.8005C68.6876 30.6669 75.1384 29.2647 75.7057 29.086C76.0976 28.9551 76.4215 28.6743 76.6062 28.3051C76.791 27.936 76.8216 27.5086 76.6913 27.117C76.5912 26.8014 76.3917 26.5265 76.1228 26.3331C75.8538 26.1396 75.5296 26.0379 75.1981 26.043C75.0345 26.041 74.872 26.0714 74.7202 26.1325C74.1231 26.3413 67.2241 29.3541 63.163 31.1431L60.1466 32.4868ZM57.0406 26.401L59.9074 24.7303C63.73 22.5227 70.2406 18.7339 70.7779 18.3463C70.9446 18.2276 71.0861 18.0771 71.1942 17.9034C71.3023 17.7298 71.3749 17.5364 71.4079 17.3347C71.4408 17.1328 71.4334 16.9265 71.3861 16.7276C71.3387 16.5286 71.2525 16.341 71.1322 16.1756C71.0119 16.0101 70.86 15.87 70.6852 15.7636C70.5104 15.6571 70.3163 15.5862 70.114 15.5551C69.9116 15.524 69.7052 15.5331 69.5064 15.5821C69.3077 15.6311 69.1207 15.7189 68.9561 15.8406C68.4782 16.1984 63.5788 20.5838 59.5486 24.1936L57.0406 26.401ZM54.4129 19.0923C57.3696 15.8109 62.3866 10.2026 62.775 9.69506C62.8966 9.52926 62.9839 9.34094 63.0318 9.141C63.0796 8.94118 63.0871 8.73374 63.0538 8.53096C63.0204 8.32818 62.9468 8.13405 62.8375 7.95994C62.7281 7.78584 62.5849 7.63541 62.4166 7.51717C62.0765 7.28663 61.6607 7.19525 61.2551 7.26182C60.8495 7.3285 60.4849 7.54801 60.2365 7.87517C59.848 8.38223 56.0851 14.8857 53.8455 18.7043L52.1729 21.5683L54.4129 19.0923ZM52.4715 3.8783C52.5912 3.48321 52.5593 3.05773 52.382 2.68495C52.2464 2.41162 52.0324 2.18494 51.7671 2.03371C51.502 1.88259 51.1977 1.81386 50.8932 1.83628C50.5887 1.8587 50.2977 1.97124 50.0576 2.15957C49.8174 2.34801 49.6389 2.60359 49.5448 2.89376C49.3655 3.49026 47.7532 10.8587 46.8273 15.1843L46.1404 18.4361L47.4843 15.3931C48.888 12.1715 52.2624 4.50484 52.4715 3.8783ZM39.3312 0C38.9201 0.00216207 38.5264 0.166365 38.2355 0.456765C37.9448 0.747279 37.7804 1.14055 37.7783 1.55134C37.7783 2.17789 38.5547 9.66536 39.0026 14.0808L39.3312 17.3923L39.6599 14.0808C40.0183 10.5309 40.8843 2.23751 40.8843 1.55134C40.882 1.14055 40.7177 0.747279 40.4269 0.456765C40.1362 0.166365 39.7425 0.00216207 39.3312 0ZM29.1473 2.92346C29.0105 2.53497 28.7301 2.21339 28.3636 2.02483C27.9971 1.83628 27.5722 1.79497 27.1762 1.90922C26.9803 1.96771 26.7992 2.06717 26.6448 2.20087C26.4904 2.33458 26.3662 2.49958 26.2805 2.68495C26.101 3.05717 26.069 3.48343 26.191 3.8783C26.4001 4.53443 29.7749 12.1715 31.2071 15.4228L32.5511 18.4658L31.864 15.214C31.1184 11.7238 29.3563 3.55 29.1473 2.92346ZM15.8879 9.66536C16.2462 10.1732 21.2933 15.7808 24.25 19.0923L26.4599 21.5683L24.7873 18.7046C22.0697 14.0215 18.7547 8.35264 18.3964 7.87562C18.1457 7.55029 17.7788 7.33442 17.3723 7.2732C16.966 7.21198 16.5517 7.31018 16.2161 7.54733C16.0522 7.66226 15.9132 7.80917 15.8073 7.97917C15.7016 8.14918 15.6313 8.33864 15.6006 8.53642C15.57 8.73419 15.5795 8.93617 15.6288 9.13019C15.6781 9.32409 15.7665 9.50616 15.8879 9.66536ZM7.88415 18.3458C8.42183 18.7335 15.6487 22.94 18.7547 24.7299L21.6231 26.4031L19.1432 24.1936C15.8582 21.2401 10.2438 16.2286 9.73568 15.8406C9.39851 15.6009 8.98021 15.5042 8.57181 15.5712C8.16352 15.6382 7.79824 15.8637 7.55552 16.1985C7.43137 16.3625 7.3433 16.5508 7.29698 16.7511C7.25056 16.9514 7.24714 17.1592 7.28663 17.361C7.31007 17.5583 7.3755 17.7482 7.47848 17.9181C7.58158 18.088 7.71995 18.2339 7.88415 18.3458ZM2.95669 29.0847C3.55387 29.2936 10.9303 30.8746 15.2607 31.7994L18.516 32.4855L15.4697 31.1431C12.2144 29.7113 4.53943 26.3401 3.91255 26.1325C3.51655 26.0115 3.0888 26.0499 2.72057 26.2392C2.35245 26.4287 2.07286 26.7542 1.94142 27.1466C1.8208 27.5312 1.85289 27.9475 2.03098 28.3091C2.23308 28.6729 2.56285 28.9492 2.95669 29.0847ZM17.4108 39.2589L14.0957 38.9306C10.5422 38.5726 2.24002 37.7075 1.55305 37.7075C1.14112 37.7075 0.746142 37.8709 0.454831 38.1619C0.163635 38.4529 0 38.8474 0 39.2589C0 39.6702 0.163635 40.0648 0.454831 40.3557C0.746142 40.6467 1.14112 40.8101 1.55305 40.8101C2.24002 40.8101 10.5419 39.9451 14.0961 39.5871L17.4108 39.2589ZM18.4863 46.0008L15.231 46.687C10.9007 47.6118 3.55342 49.1928 2.95669 49.4016C2.75891 49.4637 2.57525 49.5642 2.4164 49.6972C2.25754 49.8303 2.12656 49.9935 2.03098 50.1773C1.85255 50.5499 1.82058 50.9757 1.94142 51.3707C2.00503 51.5638 2.10642 51.7424 2.23968 51.896C2.37304 52.0498 2.53554 52.1754 2.71795 52.2657C2.93939 52.3808 3.18495 52.4422 3.43462 52.4449C3.59802 52.4442 3.75995 52.4139 3.91255 52.3555C4.53977 52.1467 12.1852 48.7755 15.44 47.3449L18.4863 46.0008Z" fill="#3195BF"/>
<path opacity="0.5" d="M70.7858 60.1417C70.3078 59.7837 64.6335 56.5024 59.9449 53.7874L57.0781 52.117L59.5569 54.3245C62.8419 57.278 68.4563 62.2894 68.9643 62.6474C69.1303 62.7687 69.3188 62.8558 69.5189 62.9036C69.7191 62.9513 69.9266 62.9587 70.1296 62.9253C70.3325 62.8921 70.5269 62.8187 70.7011 62.7094C70.8754 62.6003 71.0261 62.4575 71.1446 62.2894C71.3738 61.9544 71.4645 61.5438 71.3976 61.1435C71.3307 60.7432 71.1116 60.3842 70.7858 60.1417ZM75.7132 49.4321C75.086 49.2233 66.9032 47.4631 63.4092 46.7175L60.154 46.0312L63.2002 47.3737C67.2616 49.1635 74.1305 52.2063 74.7574 52.3843C74.91 52.4427 75.0719 52.4731 75.2353 52.4738C75.5642 52.4705 75.8839 52.3658 76.151 52.174C76.4179 51.9824 76.6192 51.7129 76.7272 51.4026C76.8471 51.0076 76.8151 50.5822 76.6378 50.2094C76.5424 50.0254 76.4118 49.862 76.2531 49.7286C76.0944 49.5952 75.911 49.4944 75.7132 49.4321Z" fill="#3195BF"/>
<path opacity="0.1" d="M24.2218 59.4238C21.2651 62.7052 16.2482 68.3136 15.8899 68.8206C15.7657 68.9846 15.6777 69.1729 15.6314 69.3732C15.5849 69.5735 15.5815 69.7813 15.621 69.983C15.6523 70.1855 15.7239 70.3795 15.8316 70.5537C15.9394 70.7279 16.0811 70.8787 16.2482 70.9973C16.5148 71.1971 16.8407 71.3021 17.1739 71.2955C17.4173 71.2953 17.6574 71.2386 17.8751 71.1299C18.0928 71.0212 18.2823 70.8633 18.4284 70.669C18.8164 70.1318 23.0276 62.9128 24.8194 59.8398L26.4915 56.9785L24.2218 59.4238ZM26.1926 74.639C26.1294 74.8348 26.1057 75.0412 26.1225 75.2463C26.1393 75.4513 26.1966 75.6512 26.2909 75.834C26.3853 76.017 26.5149 76.1795 26.6721 76.3123C26.8295 76.4451 27.0116 76.5456 27.2079 76.6079C27.3518 76.657 27.504 76.6774 27.6556 76.6677C27.9861 76.6686 28.3084 76.5653 28.5765 76.3724C28.8445 76.1796 29.0449 75.9071 29.1488 75.5938C29.358 74.9973 30.9406 67.6289 31.8664 63.3033L32.5534 60.0515L31.2095 63.0944C29.7765 66.3445 26.4016 73.9824 26.1926 74.639Z" fill="#3195BF"/>
<path opacity="0.3" d="M39.3264 61.1254L38.9977 64.4367C38.4304 69.8082 37.7734 76.3694 37.7734 76.9663C37.7734 77.3778 37.9371 77.7723 38.2283 78.0632C38.5195 78.3541 38.9146 78.5176 39.3264 78.5176C39.7383 78.5176 40.1333 78.3541 40.4246 78.0632C40.7158 77.7723 40.8794 77.3778 40.8794 76.9663C40.8794 76.28 40.0432 67.9871 39.655 64.4367L39.3264 61.1254ZM47.4196 63.0943L46.0757 60.0514L46.7628 63.3031C47.6885 67.6287 49.2712 74.968 49.4802 75.5937C49.5805 75.9094 49.7799 76.1842 50.0489 76.3776C50.3178 76.5711 50.6421 76.6728 50.9734 76.6677C51.1368 76.6669 51.2988 76.6366 51.4514 76.5782C51.8433 76.4474 52.1671 76.1665 52.3518 75.7974C52.5366 75.4282 52.5672 75.001 52.4369 74.6093C52.2576 74.0128 49.2113 67.1514 47.4196 63.0943ZM62.7698 68.8513C62.4115 68.3443 57.3925 62.736 54.4077 59.4542L52.1977 56.9785L53.8704 59.8422C56.0802 63.6607 59.8733 70.1642 60.2613 70.6712C60.3813 70.8342 60.5331 70.9711 60.7076 71.0736C60.8822 71.1761 61.0758 71.2421 61.2766 71.2677C61.366 71.2677 61.4559 71.2974 61.5454 71.2974C61.8696 71.3039 62.186 71.1986 62.4415 70.9992C62.6087 70.8806 62.7503 70.7298 62.8581 70.5556C62.9659 70.3814 63.0374 70.1874 63.0687 69.985C63.1054 69.5838 62.9992 69.1826 62.7698 68.8513Z" fill="#3195BF"/>
<path d="M108.499 44.7187H96.7319L94.3127 48.6266H89.9531L99.8089 32.9649C100.405 31.9803 101.122 31.2941 102.675 31.2941C104.2 31.2941 104.915 31.9803 105.512 32.9649L115.337 48.6266H110.947L108.499 44.7187ZM98.5241 41.7968H106.737L102.616 35.1147L98.5241 41.7968ZM117.517 48.6254V30.7875H121.31V48.6254H117.517ZM136.392 35.1427C141.408 35.1427 142.902 36.694 142.902 40.9896V42.8095C142.902 47.0753 141.439 48.6266 136.392 48.6266H128.866V52.6541H125.163V40.9891C125.163 36.6932 126.626 35.1423 131.673 35.1423L136.392 35.1427ZM139.169 41.0794C139.169 38.7227 138.512 38.3051 135.914 38.3051H131.793C129.463 38.3051 128.866 38.8422 128.866 41.0794V45.4943H135.944C138.543 45.4943 139.169 45.1364 139.169 42.72V41.0794ZM160.224 48.6254V41.1094C160.224 38.8422 159.597 38.3351 157.297 38.3351H149.89V48.6254H146.188V30.7875H149.89V35.1427H157.417C162.463 35.1427 163.927 36.694 163.927 40.9896V48.6254H160.224ZM171.9 48.6266C168.019 48.6266 166.973 47.2545 166.973 45.0767V43.7939C166.973 41.5267 167.929 40.244 171.661 40.244H181.636V39.9458C181.636 38.2156 180.98 37.7679 179.338 37.7679H168.526V35.1427H179.337C183.638 35.1427 185.339 36.694 185.339 40.1245V43.4059C185.339 47.3139 183.966 48.6266 179.188 48.6266H171.9ZM181.636 42.5112H172.049C171.183 42.5112 170.645 42.8095 170.645 43.8833V44.8081C170.645 45.7625 171.213 46.0908 172.17 46.0908H179.128C180.861 46.0908 181.607 45.7032 181.607 43.6745V42.512L181.636 42.5112ZM195.016 48.6266C189.999 48.6266 188.536 47.0753 188.536 42.8095V37.4993C188.536 33.2334 189.999 31.6821 195.016 31.6821H206.782V34.9038H195.165C192.837 34.9038 192.268 35.5901 192.268 37.6781V42.6599C192.268 44.778 192.836 45.4045 195.195 45.4045H206.782V48.6262L195.016 48.6266ZM213.322 43.2271V43.8536C213.322 45.4943 213.83 45.7926 215.563 45.7926H225.895V48.5986H215.563C211.292 48.5986 209.619 47.0472 209.619 43.4676V40.3642C209.619 36.4262 210.993 35.1131 215.741 35.1131H222.253C226.104 35.1131 227.18 36.6643 227.18 38.7824V43.1975H213.322V43.2271ZM223.507 39.1104C223.507 38.2153 223.118 37.9768 221.982 37.9768H215.802C213.919 37.9768 213.322 38.1856 213.322 40.1245V40.8404H223.475V39.1104H223.507ZM243.605 48.6266V41.1091C243.605 38.8714 242.978 38.3347 240.589 38.3347H236.557C234.229 38.3347 233.541 38.8719 233.541 41.1091V48.6266H229.838V40.9896C229.838 36.6937 231.301 35.1427 236.318 35.1427H240.828C245.844 35.1427 247.338 36.694 247.338 40.9896V48.6266H243.605ZM250.952 48.6266V38.1556H249.07V35.1427H250.951V31.3242H254.744V35.1427H259.015V38.1556H254.745V48.6266H250.952ZM261.285 48.6266V40.81C261.285 36.7826 263.046 35.1419 267.616 35.1419H270.034V38.1551H267.707C265.646 38.1551 264.99 38.6922 264.99 40.8408V48.627L261.285 48.6266ZM274.007 34.367C273.08 34.367 272.723 34.009 272.723 33.2334V31.8016C272.723 30.9963 273.08 30.668 274.007 30.668H275.231C276.187 30.668 276.515 30.9963 276.515 31.8016V33.2334C276.515 34.0387 276.157 34.367 275.231 34.367H274.007ZM272.753 48.6262V35.5007H276.546V48.6262H272.753ZM292.403 48.6266L287.834 43.7638L283.205 48.6266H278.665L285.655 41.6161L279.143 35.1427H283.593L287.983 39.7068L292.463 35.1427H296.943L290.193 41.7355L297.002 48.6266H292.403Z" fill="white"/>
</g>
</svg>
