<svg width="28" height="28" viewBox="0 0 28 28" fill="none" xmlns="http://www.w3.org/2000/svg">
<path fill-rule="evenodd" clip-rule="evenodd" d="M12.8346 2.33301C11.9064 2.33301 11.0161 2.70176 10.3598 3.35813C9.70338 4.01451 9.33464 4.90475 9.33464 5.83301V22.1663C9.33464 23.0946 9.70338 23.9848 10.3598 24.6412C11.0161 25.2976 11.9064 25.6663 12.8346 25.6663H19.8346C20.7629 25.6663 21.6531 25.2976 22.3095 24.6412C22.9659 23.9848 23.3346 23.0946 23.3346 22.1663V5.83301C23.3346 4.90475 22.9659 4.01451 22.3095 3.35813C21.6531 2.70176 20.7629 2.33301 19.8346 2.33301H12.8346ZM14.3431 9.67484C14.5619 9.45613 14.8586 9.33326 15.168 9.33326C15.4773 9.33326 15.774 9.45613 15.9928 9.67484L19.4928 13.1748C19.7115 13.3936 19.8344 13.6903 19.8344 13.9997C19.8344 14.309 19.7115 14.6057 19.4928 14.8245L15.9928 18.3245C15.7728 18.537 15.4781 18.6546 15.1722 18.652C14.8663 18.6493 14.5737 18.5266 14.3573 18.3103C14.141 18.094 14.0183 17.8014 14.0157 17.4955C14.013 17.1896 14.1306 16.8949 14.3431 16.6748L15.8516 15.1663H5.83464C5.52522 15.1663 5.22847 15.0434 5.00968 14.8246C4.79089 14.6058 4.66797 14.3091 4.66797 13.9997C4.66797 13.6903 4.79089 13.3935 5.00968 13.1747C5.22847 12.9559 5.52522 12.833 5.83464 12.833H15.8516L14.3431 11.3245C14.1244 11.1057 14.0016 10.809 14.0016 10.4997C14.0016 10.1903 14.1244 9.89362 14.3431 9.67484Z" fill="white"/>
</svg>
