<svg width="20" height="19" viewBox="0 0 20 19" fill="none" xmlns="http://www.w3.org/2000/svg">
<g id="Layer_1" clip-path="url(#clip0_67_67)">
<path id="Vector" d="M7.7792 16.6226C5.86066 16.6226 3.9865 16.6475 2.11359 16.6131C0.965211 16.5923 0.00500109 15.5952 0.00375082 14.5014C-0.00125027 11.1683 -0.00125027 7.83487 0.00375082 4.50104C0.00375082 3.33652 1.08711 2.34896 2.29988 2.37152C2.46429 2.37449 2.50492 2.41725 2.50742 2.57046C2.51367 2.97427 2.46304 3.37987 2.55056 3.78249C2.77436 4.80687 3.65392 5.52126 4.75791 5.53017C6.28825 5.54264 7.82109 5.53967 9.34954 5.53017C10.6711 5.52305 11.6419 4.60081 11.6713 3.34067C11.6769 3.09363 11.6851 2.84541 11.6713 2.59896C11.6594 2.41725 11.7163 2.36855 11.9114 2.36915C13.1272 2.37449 14.1362 3.32464 14.1725 4.53727C14.1919 5.1994 14.1725 5.86272 14.18 6.52545C14.18 6.69054 14.1306 6.7517 13.9556 6.75705C12.9553 6.78793 12.0114 7.04328 11.1187 7.46966C10.9818 7.53558 10.8386 7.52905 10.6936 7.52905C8.23472 7.52905 5.7773 7.52905 3.32135 7.52905C3.18695 7.52905 3.04191 7.51895 2.92001 7.56052C2.79899 7.5957 2.69324 7.66722 2.61863 7.76433C2.54401 7.86144 2.50455 7.97892 2.50617 8.09913C2.50055 8.37646 2.65558 8.56293 2.92189 8.66626C3.06004 8.7197 3.20758 8.71198 3.35323 8.71198H9.2764C8.86494 9.09655 8.50296 9.52613 8.19804 9.99171C8.11115 10.1289 7.9855 10.0921 7.86797 10.0921C6.30513 10.0921 4.74229 10.0921 3.17944 10.095C2.81061 10.095 2.53868 10.3154 2.50242 10.6242C2.48984 10.7733 2.53554 10.9216 2.63079 11.0408C2.72604 11.16 2.86416 11.2417 3.01878 11.2703C3.12252 11.2816 3.22709 11.2846 3.33135 11.2792H7.51039C7.38911 11.7156 7.24096 12.1248 7.18095 12.5535C7.15719 12.7246 7.00341 12.6575 6.90526 12.6575C5.7175 12.6622 4.52974 12.6604 3.34198 12.661C3.24832 12.6571 3.15448 12.6601 3.06129 12.6699C2.90485 12.6875 2.76079 12.7595 2.65691 12.872C2.55302 12.9845 2.49665 13.1296 2.49867 13.2792C2.51117 13.5981 2.77061 13.8398 3.13569 13.8416C4.34345 13.8469 5.55121 13.8523 6.76148 13.8374C7.03216 13.8345 7.11656 13.8968 7.12343 14.1605C7.14781 15.0097 7.4085 15.8084 7.7792 16.6226Z" fill="white"/>
<path id="Vector_2" d="M19.9997 13.6767C19.9966 16.6222 17.4629 19.0035 14.3372 18.9993C11.2584 18.9946 8.74598 16.5824 8.75098 13.6339C8.75599 10.6855 11.2915 8.30421 14.4135 8.31252C17.4973 8.32024 20.0034 10.7265 19.9997 13.6767ZM13.5508 14.4285C13.5508 14.8834 13.5464 15.3383 13.5508 15.7943C13.5577 16.2825 13.8965 16.621 14.3685 16.6257C14.8404 16.6305 15.193 16.2896 15.1968 15.8062C15.203 14.9067 15.203 14.0069 15.1968 13.1066C15.1936 12.6113 14.8623 12.2859 14.3797 12.2835C13.8971 12.2812 13.5589 12.6042 13.5514 13.0959C13.5458 13.5377 13.5514 13.9831 13.5508 14.4285ZM13.5508 11.0739C13.5515 11.228 13.6002 11.3785 13.6907 11.5064C13.7812 11.6344 13.9094 11.734 14.0593 11.793C14.2093 11.8519 14.3742 11.8674 14.5334 11.8376C14.6925 11.8078 14.8389 11.7339 14.954 11.6254C15.0692 11.5168 15.148 11.3783 15.1806 11.2273C15.2132 11.0764 15.1981 10.9196 15.1372 10.7767C15.0763 10.6339 14.9723 10.5113 14.8383 10.4244C14.7044 10.3375 14.5463 10.2901 14.3841 10.2882C14.2749 10.2868 14.1665 10.3061 14.0652 10.345C13.964 10.3839 13.8719 10.4416 13.7944 10.5147C13.7169 10.5878 13.6556 10.6749 13.6139 10.7708C13.5723 10.8667 13.5513 10.9695 13.552 11.0733L13.5508 11.0739Z" fill="white"/>
<path id="Vector_3" d="M7.09054 4.74895C6.35162 4.74895 5.61334 4.74895 4.87505 4.74895C3.96798 4.74895 3.34597 4.16818 3.32721 3.30889C3.31971 2.96327 3.32159 2.61706 3.32721 2.27144C3.33409 1.82428 3.57727 1.56952 4.03362 1.59506C4.55686 1.62415 4.89818 1.55349 5.18199 1.01665C5.59083 0.244657 6.39788 -0.0748302 7.31058 0.0118709C8.19265 0.0956027 8.84092 0.54633 9.18599 1.33258C9.28102 1.54814 9.39354 1.61168 9.62359 1.59149C9.83166 1.57629 10.0407 1.57629 10.2487 1.59149C10.5832 1.6105 10.8176 1.8219 10.8257 2.13902C10.8382 2.60281 10.8464 3.06897 10.817 3.53158C10.7738 4.1949 10.1343 4.73708 9.40354 4.74599C8.62962 4.75786 7.86008 4.74895 7.09054 4.74895Z" fill="white"/>
</g>
<defs>
<clipPath id="clip0_67_67">
<rect width="20" height="19" fill="white"/>
</clipPath>
</defs>
</svg>
