<svg width="12" height="12" viewBox="0 0 12 12" fill="none" xmlns="http://www.w3.org/2000/svg">
<circle opacity="0.2" cx="6" cy="6" r="6" fill="white"/>
<path d="M9.03352 8.59134C9.06256 8.62037 9.08559 8.65484 9.1013 8.69277C9.11702 8.73071 9.1251 8.77137 9.1251 8.81243C9.1251 8.85349 9.11702 8.89415 9.1013 8.93209C9.08559 8.97002 9.06256 9.00449 9.03352 9.03352C9.00449 9.06256 8.97002 9.08559 8.93209 9.1013C8.89415 9.11702 8.85349 9.1251 8.81243 9.1251C8.77137 9.1251 8.73071 9.11702 8.69277 9.1013C8.65484 9.08559 8.62037 9.06256 8.59134 9.03352L5.99993 6.44173L3.40852 9.03352C3.34989 9.09216 3.27036 9.1251 3.18743 9.1251C3.1045 9.1251 3.02497 9.09216 2.96634 9.03352C2.9077 8.97489 2.87476 8.89536 2.87476 8.81243C2.87476 8.7295 2.9077 8.64997 2.96634 8.59134L5.55813 5.99993L2.96634 3.40852C2.9077 3.34989 2.87476 3.27036 2.87476 3.18743C2.87476 3.1045 2.9077 3.02497 2.96634 2.96634C3.02497 2.9077 3.1045 2.87476 3.18743 2.87476C3.27036 2.87476 3.34989 2.9077 3.40852 2.96634L5.99993 5.55813L8.59134 2.96634C8.64997 2.9077 8.7295 2.87476 8.81243 2.87476C8.89536 2.87476 8.97489 2.9077 9.03352 2.96634C9.09216 3.02497 9.1251 3.1045 9.1251 3.18743C9.1251 3.27036 9.09216 3.34989 9.03352 3.40852L6.44173 5.99993L9.03352 8.59134Z" fill="white" stroke="white" stroke-width="0.3"/>
</svg>
