<svg width="21" height="20" viewBox="0 0 21 20" fill="none" xmlns="http://www.w3.org/2000/svg">
<g id="Layer_1" clip-path="url(#clip0_67_109)">
<path id="Vector" d="M7.0072 13.3322C7.0072 11.6553 7.03805 9.97788 6.99473 8.30168C6.97044 7.35636 7.69709 6.65111 8.72963 6.66049C12.2506 6.69238 15.7716 6.67175 19.2933 6.673C20.3902 6.673 21 7.2532 21 8.2898V18.4145C21 19.4024 20.3672 20.0001 19.3228 20.0001H8.66268C7.64196 20.0001 7.01311 19.4049 7.01049 18.4258C7.00392 16.7277 7.0072 15.0302 7.0072 13.3322ZM13.9967 15.8243C14.6531 15.8243 15.3062 15.8299 15.9613 15.8243C16.3047 15.8205 16.5574 15.6117 16.6066 15.3185C16.7733 14.3344 16.1471 13.5053 15.1119 13.3728C14.4184 13.2885 13.7168 13.2833 13.0219 13.3572C11.9316 13.4647 11.3152 14.1662 11.3704 15.1584C11.3927 15.5854 11.6441 15.8224 12.0977 15.8255C12.7324 15.8286 13.3639 15.8249 13.9967 15.8243ZM15.3017 11.2602C15.3048 11.0965 15.2737 10.9337 15.2101 10.7816C15.1466 10.6294 15.0519 10.4908 14.9315 10.3738C14.8112 10.2568 14.6676 10.1639 14.5091 10.1003C14.3506 10.0367 14.1805 10.0038 14.0085 10.0035C13.8361 10.0024 13.6652 10.0337 13.5054 10.0955C13.3457 10.1573 13.2003 10.2485 13.0776 10.3638C12.9549 10.4791 12.8572 10.6163 12.7902 10.7676C12.7231 10.9189 12.688 11.0813 12.6868 11.2455C12.6857 11.4097 12.7185 11.5725 12.7834 11.7247C12.8483 11.8768 12.944 12.0153 13.0651 12.1322C13.1862 12.2491 13.3302 12.3421 13.4891 12.406C13.6479 12.4698 13.8184 12.5033 13.9908 12.5044C14.1632 12.5061 14.3343 12.4751 14.494 12.4131C14.6537 12.3512 14.7988 12.2595 14.9209 12.1435C15.0429 12.0275 15.1395 11.8894 15.2049 11.7374C15.2702 11.5854 15.3031 11.4226 15.3017 11.2583V11.2602Z" fill="white"/>
<path id="Vector_2" d="M10.5007 9.28377e-05H19.3583C20.3574 9.28377e-05 20.9994 0.607177 20.9994 1.55438C20.9994 2.21085 20.9994 2.86733 20.9994 3.52318C20.9948 4.35221 20.3397 4.99681 19.4725 4.99743C13.4913 5.00202 7.51026 5.00202 1.52946 4.99743C0.663647 4.99743 0.00788915 4.35034 0.00395066 3.52193C0.000668592 2.83419 -0.000644236 2.14646 0.00395066 1.45872C0.00244255 1.26579 0.0414123 1.07452 0.118573 0.896126C0.195733 0.717736 0.30953 0.555823 0.453283 0.419893C0.597036 0.283963 0.767849 0.176753 0.955696 0.104556C1.14354 0.0323596 1.34464 -0.00336855 1.54718 -0.000532034C4.53168 -0.00261608 7.51617 -0.00240802 10.5007 9.28377e-05Z" fill="white"/>
<path id="Vector_3" d="M0.00294325 17.4789C0.00791815 16.984 0.166939 16.5016 0.459878 16.0929C0.752817 15.6841 1.1665 15.3674 1.64856 15.1826C2.13061 14.9979 2.65937 14.9536 3.16789 15.0553C3.6764 15.157 4.14182 15.4001 4.50521 15.7538C4.8686 16.1075 5.11362 16.556 5.20927 17.0425C5.30491 17.5289 5.24688 18.0315 5.0425 18.4865C4.83813 18.9415 4.49662 19.3285 4.06119 19.5986C3.62576 19.8686 3.116 20.0095 2.59644 20.0035C1.16151 19.9941 -0.00165164 18.8637 0.00294325 17.4789Z" fill="white"/>
<path id="Vector_4" d="M0.00300946 9.98511C0.00628212 9.49013 0.163698 9.00721 0.455322 8.5975C0.746946 8.18779 1.15966 7.86973 1.6412 7.68358C2.12274 7.49743 2.65145 7.45158 3.16037 7.55183C3.66929 7.65207 4.13553 7.89391 4.50005 8.24671C4.86457 8.59952 5.11097 9.04742 5.20805 9.53369C5.30513 10.02 5.24852 10.5227 5.04539 10.9784C4.84227 11.434 4.50175 11.8219 4.06698 12.0931C3.63221 12.3642 3.12273 12.5064 2.60306 12.5016C1.90796 12.4962 1.24359 12.228 0.756016 11.7561C0.268443 11.2842 -0.0024094 10.6472 0.00300946 9.98511Z" fill="white"/>
</g>
<defs>
<clipPath id="clip0_67_109">
<rect width="21" height="20" fill="white"/>
</clipPath>
</defs>
</svg>
