<svg width="24" height="24" viewBox="0 0 24 24" fill="none" xmlns="http://www.w3.org/2000/svg">
<g clip-path="url(#clip0_227_747)">
<path fill-rule="evenodd" clip-rule="evenodd" d="M12.0001 0C5.38322 0 0 5.38327 0 12.0001C0 18.617 5.38327 24 12.0001 24C18.6169 24 24.0002 18.617 24.0002 12.0001C24.0002 5.38327 18.6169 0 12.0001 0Z" fill="#F44336"/>
<path fill-rule="evenodd" clip-rule="evenodd" d="M17.2848 9.63148C17.0655 9.41216 16.7091 9.41216 16.4893 9.63148C16.2699 9.85128 16.2699 10.2075 16.4893 10.4268L17.5013 11.4388H11.1849C10.8741 11.4388 10.6224 11.6907 10.6224 12.0013C10.6224 12.3122 10.874 12.5639 11.1849 12.5639H17.5013L16.4893 13.5759C16.2699 13.7952 16.2699 14.1515 16.4893 14.3713C16.5996 14.4812 16.7433 14.536 16.8873 14.536C17.0312 14.536 17.1752 14.4812 17.2849 14.3713L19.2568 12.3994C19.3625 12.2935 19.422 12.1505 19.422 12.0014C19.422 11.8524 19.3625 11.7088 19.2568 11.6034L17.2848 9.63148ZM15.8748 15.8486C16.0961 16.0668 16.0979 16.423 15.8794 16.6439C14.6295 17.908 12.9625 18.6041 11.1849 18.6041C7.5443 18.6041 4.58203 15.6422 4.58203 12.0013C4.58203 8.36047 7.5443 5.39844 11.1849 5.39844C12.9625 5.39844 14.6295 6.09472 15.8794 7.35884C16.0979 7.57953 16.0961 7.93592 15.8748 8.15441C15.6539 8.37289 15.2979 8.37087 15.0795 8.14977C14.0424 7.10103 12.6592 6.52348 11.185 6.52348C8.16431 6.52348 5.70708 8.98072 5.70708 12.0014C5.70708 15.0221 8.16431 17.4793 11.185 17.4793C12.6592 17.4793 14.0424 16.9018 15.0795 15.8532C15.2979 15.6319 15.6539 15.6301 15.8748 15.8486Z" fill="white"/>
</g>
<defs>
<clipPath id="clip0_227_747">
<rect width="24" height="24" fill="white"/>
</clipPath>
</defs>
</svg>
